<?xml version="1.0" standalone="no"?>
<!DOCTYPE svg PUBLIC "-//W3C//DTD SVG 20010904//EN"
 "http://www.w3.org/TR/2001/REC-SVG-20010904/DTD/svg10.dtd">
<svg version="1.0" xmlns="http://www.w3.org/2000/svg"
 width="1024.000000pt" height="1024.000000pt" viewBox="0 0 1024.000000 1024.000000"
 preserveAspectRatio="xMidYMid meet">

<g transform="translate(0.000000,1024.000000) scale(0.100000,-0.100000)"
fill="#000000" stroke="none">
<path d="M0 5120 l0 -5120 5120 0 5120 0 0 5120 0 5120 -5120 0 -5120 0 0
-5120z m5404 3249 c218 -14 502 -64 656 -117 411 -140 738 -317 1088 -591 121
-95 192 -163 192 -183 0 -5 -71 -8 -158 -8 -131 0 -162 3 -181 17 -14 9 -21
12 -18 6 12 -19 -20 -23 -172 -23 l-147 0 -63 53 c-103 87 -368 233 -536 294
-288 105 -530 147 -840 147 -267 0 -489 -31 -764 -106 -224 -61 -576 -235
-715 -354 l-40 -34 -153 0 c-84 0 -153 4 -153 8 0 4 6 14 13 22 6 8 0 5 -14
-8 -24 -21 -33 -22 -203 -22 -208 0 -203 -11 -51 119 219 188 451 347 665 455
410 208 733 294 1215 325 190 12 192 12 379 0z m31 -610 c156 -20 358 -60 454
-90 166 -53 370 -141 421 -181 l25 -20 -85 7 c-47 4 -89 8 -95 9 -6 0 -9 -22
-7 -55 2 -33 -1 -60 -7 -64 -6 -3 -39 9 -73 28 -80 44 -224 98 -363 136 -260
71 -537 83 -830 36 -150 -24 -372 -90 -505 -149 -69 -31 -126 -56 -127 -56 -2
0 -3 27 -3 59 l0 59 -82 -5 -83 -4 25 22 c66 59 397 184 603 228 243 52 518
67 732 40z m-2501 -445 c3 -26 6 -78 6 -115 l0 -69 -110 0 c-60 0 -110 3 -110
6 0 12 191 224 201 224 3 0 9 -21 13 -46z m4706 -169 c0 -6 -33 -9 -85 -7
l-85 3 0 74 c0 120 3 121 92 24 43 -46 78 -88 78 -94z m-2342 118 c43 -28 74
-78 87 -141 10 -47 -33 -132 -87 -171 -54 -40 -109 -48 -173 -24 -126 47 -153
246 -44 324 67 47 155 52 217 12z m1422 -844 l0 -859 -190 0 -189 0 0 855 0
855 22 1 c85 6 343 13 350 11 4 -2 7 -390 7 -863z m-2668 4 c2 -472 3 -859 3
-860 0 -1 -85 -3 -188 -3 l-186 -2 -7 856 -7 855 69 4 c38 1 124 4 190 5 l122
2 4 -857z m-536 838 c-3 -5 -6 -389 -7 -855 l0 -846 -185 0 -184 0 1 633 c0
347 -2 732 -6 855 l-8 222 197 0 c111 0 195 -4 192 -9z m3744 -63 c1 -40 2
-425 3 -856 l2 -782 -192 0 -191 0 1 855 2 855 188 0 187 0 0 -72z m-2997 20
c-9 -15 -23 -8 -23 12 0 17 2 19 14 8 8 -7 12 -16 9 -20z m-1280 -809 l-1
-521 -134 -4 c-73 -2 -142 -6 -154 -9 l-20 -4 -1 532 -1 532 157 -3 156 -3 -2
-520z m4743 1 l0 -529 -155 0 -156 1 -2 529 -2 529 157 0 157 0 1 -530z
m-1556 -10 l0 -227 -977 -1 -978 -1 -2 228 -2 228 980 0 979 -1 0 -226z
m-3660 103 l0 -118 -94 0 c-52 0 -97 -3 -101 -7 -4 -3 -3 -38 1 -77 l7 -71 74
0 c41 0 83 5 94 10 17 10 19 7 19 -20 l0 -30 -84 0 c-123 0 -125 3 -137 165
-9 133 -4 230 13 253 7 8 42 12 109 12 l99 0 0 -117z m5551 97 c17 -9 19 -22
19 -104 l0 -93 -81 -6 c-44 -3 -81 -7 -83 -9 -1 -1 0 -33 2 -69 l4 -67 69 -6
c38 -4 73 -4 79 -1 5 3 10 -1 10 -10 0 -23 -42 -35 -119 -35 l-68 0 -7 173
c-4 94 -9 187 -12 205 l-6 32 87 0 c47 0 95 -5 106 -10z m-5720 -584 l84 -12
-2 -40 -1 -39 11 38 c7 26 16 37 26 35 14 -3 16 -24 16 -138 0 -133 0 -134 25
-147 14 -7 33 -13 43 -13 13 0 17 -5 13 -17 -3 -10 -16 -54 -30 -98 -13 -44
-26 -91 -28 -105 l-3 -25 -212 -3 -213 -2 0 24 c0 46 90 466 121 563 l10 33
29 -21 c18 -14 58 -25 111 -33z m5876 -65 c34 -96 96 -332 108 -411 3 -25 9
-53 11 -62 5 -17 -10 -18 -223 -18 l-229 0 -17 73 c-10 40 -29 96 -42 125
l-24 52 39 0 c29 0 42 5 50 20 6 11 13 78 17 149 l6 128 96 5 c62 3 107 11
126 21 17 9 34 15 40 13 5 -1 24 -44 42 -95z m-2919 -24 c21 -14 47 -42 57
-63 19 -41 34 -139 17 -116 -5 8 -12 13 -16 13 -20 -3 -26 0 -20 11 4 7 3 8
-4 4 -7 -4 -12 -13 -12 -21 0 -17 -54 -50 -105 -64 -36 -10 -44 -8 -101 24
-67 36 -89 32 -77 -13 3 -12 3 -22 0 -22 -16 0 -24 96 -12 142 31 121 169 174
273 105z m-1768 -573 c107 -19 167 -38 254 -81 87 -44 246 -142 246 -152 0 -4
-12 -18 -26 -32 -25 -22 -199 -235 -236 -287 l-16 -23 -48 36 c-110 84 -229
125 -364 126 -100 0 -136 -8 -230 -56 -172 -87 -280 -305 -250 -503 23 -146
134 -297 268 -366 44 -23 154 -46 219 -46 60 0 173 22 232 46 l41 16 0 57 c0
31 3 66 6 79 l7 23 -134 -1 c-74 -1 -150 -1 -169 0 l-35 0 -1 163 c0 90 -4
178 -7 195 l-6 32 382 0 383 0 2 -272 c1 -150 4 -330 8 -400 4 -84 3 -128 -4
-128 -5 0 -38 -20 -73 -44 -109 -74 -215 -120 -376 -163 -84 -22 -118 -26
-238 -26 -168 1 -258 18 -405 76 -135 54 -200 98 -302 206 -128 137 -215 302
-239 452 -16 101 -5 312 20 411 99 384 384 629 787 678 82 10 188 4 304 -16z
m3686 12 c217 -29 285 -48 488 -139 43 -19 83 -40 89 -46 11 -11 -63 -138
-160 -277 -29 -41 -53 -79 -53 -85 0 -15 -20 -10 -50 11 -50 35 -166 80 -237
90 -107 15 -291 12 -352 -6 -72 -21 -121 -67 -128 -121 -7 -53 11 -83 64 -108
32 -16 76 -20 268 -26 308 -10 408 -29 508 -97 161 -112 224 -337 152 -543
-46 -130 -186 -296 -305 -361 -155 -86 -298 -114 -525 -105 -149 6 -211 19
-438 93 -151 49 -217 79 -217 100 0 9 22 51 49 93 26 42 74 125 106 184 l57
108 22 -20 c27 -25 154 -76 248 -98 56 -14 115 -18 253 -18 169 0 183 1 228
24 59 28 82 62 82 117 0 48 -14 68 -69 97 -37 19 -64 21 -291 28 -264 7 -305
13 -405 64 -117 59 -198 177 -227 328 -30 159 0 310 88 442 95 142 228 219
454 265 112 23 163 24 301 6z m-1056 -891 l0 -875 -215 0 c-188 0 -216 2 -222
16 -9 24 -9 422 0 734 l8 275 -118 -235 c-65 -129 -173 -325 -239 -435 -139
-229 -186 -305 -189 -305 -2 0 -51 91 -110 202 -59 111 -131 243 -160 293 -29
49 -96 178 -150 285 -53 107 -100 198 -104 202 -4 5 -1 -54 6 -130 7 -79 12
-296 13 -515 l0 -378 -215 2 -215 2 0 862 0 862 53 -9 c34 -7 115 -6 237 1
146 9 187 8 197 -2 6 -6 36 -55 64 -107 29 -52 92 -167 141 -255 48 -88 123
-229 165 -313 42 -84 80 -149 84 -145 4 5 28 49 54 98 130 246 384 696 407
720 5 6 75 9 176 8 92 -1 199 1 237 6 39 4 76 9 83 10 9 1 12 -180 12 -874z
m-3653 735 c-130 -141 -227 -320 -251 -465 -10 -58 -17 -65 -72 -74 l-49 -9
49 -1 49 -1 -19 -21 c-13 -15 -15 -23 -7 -26 18 -7 -16 -40 -47 -46 -14 -2 -6
-3 18 -2 l42 3 0 -108 0 -107 -37 -7 c-21 -3 -130 -7 -243 -7 -113 -1 -189 -4
-170 -6 89 -9 100 -13 100 -38 0 -29 -14 -34 -120 -38 -41 -2 51 -4 206 -5
l281 -2 21 -74 c12 -41 22 -85 22 -98 0 -55 142 -282 240 -385 16 -18 30 -36
30 -42 0 -13 -237 -18 -413 -10 -73 4 -249 7 -393 8 l-260 1 -1 456 c0 455 0
456 21 464 15 6 16 9 5 9 -19 1 -29 79 -29 222 0 68 3 88 15 93 11 4 15 20 15
55 0 34 -4 51 -15 55 -12 4 -15 29 -15 138 l0 133 545 2 546 2 -64 -69z m6361
-60 c-1 -76 -6 -134 -12 -137 -10 -6 -948 -5 -954 2 -5 5 108 228 126 248 14
16 47 17 429 17 l413 0 -2 -130z m-962 -260 c60 -18 95 -19 508 -20 l443 -1 7
-86 c3 -47 4 -88 2 -90 -2 -2 -181 -4 -397 -4 -217 0 -434 -3 -484 -7 -84 -7
-93 -6 -133 16 -57 32 -64 48 -53 124 10 69 34 133 39 105 2 -11 26 -24 68
-37z m954 -427 l0 -98 -324 -1 c-178 -1 -371 -5 -428 -9 l-106 -7 -16 74 c-9
40 -19 82 -22 94 -3 13 -1 21 8 22 62 8 579 10 563 3 -15 -7 -5 -9 37 -8 31 0
55 4 52 9 -3 5 37 8 89 6 52 -2 93 -6 91 -9 -2 -4 8 -9 22 -12 18 -3 24 -1 20
8 -4 12 2 25 11 25 2 0 3 -44 3 -97z m-6747 -150 c-13 -2 -33 -2 -45 0 -13 2
-3 4 22 4 25 0 35 -2 23 -4z m-109 -28 c4 -12 -4 -15 -39 -15 -33 0 -45 4 -45
15 0 11 11 15 39 15 25 0 41 -5 45 -15z m133 -19 c11 -10 -91 -6 -107 4 -11 7
2 9 43 6 32 -2 61 -6 64 -10z m6722 -85 l-3 -69 -71 0 c-90 0 -552 -19 -672
-28 l-93 -6 1 33 c1 38 16 140 18 124 1 -6 96 -9 268 -8 169 1 257 -2 238 -7
-25 -8 -22 -9 21 -6 41 2 55 -1 65 -16 7 -10 21 -18 31 -18 10 0 18 -4 18 -10
0 -5 -16 -10 -35 -10 -28 0 -35 -4 -35 -20 0 -21 15 -27 25 -10 3 6 24 10 46
10 37 0 39 2 39 30 0 17 5 30 10 30 6 0 10 10 10 21 0 18 5 21 29 17 17 -2 28
-1 25 4 -3 4 11 8 31 8 l36 0 -2 -69z m-7221 -748 c139 -85 316 -166 402 -185
54 -11 121 -46 135 -69 13 -21 -22 -41 -121 -68 -105 -30 -201 -69 -171 -70 9
-1 18 -7 19 -13 8 -69 25 -86 88 -89 14 0 -43 -18 -126 -39 -82 -21 -199 -54
-259 -74 -60 -19 -110 -34 -112 -33 -6 6 -7 77 -5 390 1 220 5 327 12 327 6 0
68 -35 138 -77z m7226 -82 c8 -191 -3 -521 -17 -521 -6 0 -60 16 -121 35 -128
40 -385 91 -500 99 -85 6 -99 11 -76 27 11 7 7 8 -12 3 -18 -4 -28 -2 -28 5 0
6 6 11 14 11 7 0 16 9 19 21 5 17 2 20 -14 16 -17 -4 -18 -3 -8 9 6 8 18 14
25 14 8 0 13 6 12 13 -2 6 5 11 14 11 10 -1 14 4 11 12 -3 8 0 14 6 14 6 0 11
-5 11 -11 0 -5 5 -7 11 -3 8 5 8 9 -1 14 -8 5 0 17 26 36 22 15 57 46 80 69
23 22 59 46 80 54 21 7 98 45 169 84 72 39 162 88 200 108 39 21 75 39 81 39
7 0 13 -54 18 -159z m-994 74 c0 -7 -7 -19 -16 -26 -9 -7 -39 -47 -67 -88 -27
-41 -84 -111 -127 -155 -42 -45 -106 -117 -142 -161 -134 -162 -368 -370 -548
-489 -262 -173 -281 -184 -475 -274 -310 -144 -694 -257 -945 -277 -41 -4 -82
-9 -90 -11 -28 -10 -496 -4 -600 7 -459 48 -918 213 -1339 478 -117 74 -140
91 -302 222 -254 205 -542 507 -657 689 l-41 65 257 5 257 5 25 -30 c14 -16
59 -66 100 -110 41 -44 98 -105 125 -136 73 -81 270 -247 387 -327 181 -122
463 -265 668 -338 36 -12 121 -37 188 -54 514 -129 988 -109 1521 66 142 46
476 213 633 316 223 146 525 420 605 549 l34 57 112 7 c62 4 180 11 262 14 83
3 156 6 163 7 6 0 12 -5 12 -11z m-2588 -54 c61 -39 79 -68 85 -141 7 -78 -15
-140 -65 -178 -45 -34 -126 -38 -187 -7 -60 30 -98 108 -93 192 5 75 26 108
88 141 62 31 115 29 172 -7z m1276 -106 c26 -14 58 -25 72 -25 14 0 32 -5 40
-10 53 -36 -369 -288 -691 -413 -116 -45 -330 -104 -469 -129 -100 -17 -566
-18 -670 0 -227 38 -629 197 -872 344 -97 59 -209 148 -202 160 3 4 20 8 39 8
38 0 91 17 82 26 -3 4 1 13 9 22 19 18 39 10 139 -56 89 -59 307 -172 408
-211 104 -42 292 -96 402 -117 117 -23 522 -26 635 -5 319 57 614 167 827 307
95 62 195 124 200 124 2 0 25 -11 51 -25z"/>
<path d="M8245 3141 c-3 -5 3 -12 12 -14 17 -4 17 -5 1 -6 -19 -1 -26 -31 -8
-31 6 0 10 6 10 13 0 7 3 8 8 2 4 -5 13 -11 20 -12 18 -4 15 28 -5 43 -21 16
-30 17 -38 5z"/>
<path d="M8388 3083 c7 -3 16 -2 19 1 4 3 -2 6 -13 5 -11 0 -14 -3 -6 -6z"/>
<path d="M2700 3390 c0 -5 16 -10 36 -10 19 0 33 -4 30 -8 -2 -4 4 -8 14 -9
17 -2 18 1 7 18 -8 13 -23 19 -49 19 -21 0 -38 -4 -38 -10z"/>
<path d="M5085 3160 c3 -5 8 -10 11 -10 2 0 4 5 4 10 0 6 -5 10 -11 10 -5 0
-7 -4 -4 -10z"/>
</g>
</svg>
